<?xml version="1.0" encoding="utf-8"?>

<!-- Uploaded to: SVG Repo, www.svgrepo.com, Generator: SVG Repo Mixer Tools -->
<svg fill="#000000" height="800px" width="800px" version="1.1" id="Icons" xmlns="http://www.w3.org/2000/svg" xmlns:xlink="http://www.w3.org/1999/xlink" 
	 viewBox="0 0 32 32" xml:space="preserve">
<g>
	<path d="M16,10c1.7,0,3-1.3,3-3s-1.3-3-3-3s-3,1.3-3,3S14.3,10,16,10z"/>
	<path d="M16,13c-1.7,0-3,1.3-3,3s1.3,3,3,3s3-1.3,3-3S17.7,13,16,13z"/>
	<path d="M16,22c-1.7,0-3,1.3-3,3s1.3,3,3,3s3-1.3,3-3S17.7,22,16,22z"/>
</g>
</svg>